<?xml version='1.0' encoding='utf-8'?>
<!DOCTYPE svg PUBLIC '-//W3C//DTD SVG 1.1//EN' 'http://www.w3.org/Graphics/SVG/1.1/DTD/svg11.dtd'>
<svg version="1.1" xmlns="http://www.w3.org/2000/svg" viewBox="0 0 512 512" xmlns:xlink="http://www.w3.org/1999/xlink" enable-background="new 0 0 512 512">
  <g>
    <g>
      <path d="m488.1,101.2l-224.6-88.8c-4.8-1.9-10.2-1.9-15-5.32907e-15l-224.6,88.8c-0.1,0-12.4,4.3-12.9,19v287.2c0,8.8 5.7,16.7 14.1,19.4l224.6,73.2c0.3,0.1 3,1 6.3,1 3.5,0 6-0.9 6.3-1l224.6-73.2c8.4-2.7 14.1-10.6 14.1-19.4v-287.2c-0.7-14.7-12.8-19-12.9-19zm-252.5,351.3l-183.8-59.9v-244.3l183.8,59.9v244.3zm20.4-280.6l-164.4-53.6 164.4-65 164.4,65-164.4,53.6zm204.2,220.7l-183.7,59.9v-244.3l183.5-59.8h0.1v244.2z"/>
      <path d="m258.6,102.6h-6.9c-12.4,0-22.4,10-22.4,22.4 0,12.4 10,22.4 22.4,22.4h6.9c12.4,0 22.4-10 22.4-22.4 0-12.4-10-22.4-22.4-22.4z"/>
      <path d="m331.9,292.6c-14.3,0-25.8,11.6-25.8,25.8 0,14.3 11.6,25.8 25.8,25.8 14.3,0 25.8-11.6 25.8-25.8 0.1-14.3-11.5-25.8-25.8-25.8z"/>
      <path d="m404.7,256.5c-14.3,0-25.8,11.6-25.8,25.8 0,14.3 11.6,25.8 25.8,25.8 14.3,0 25.8-11.6 25.8-25.8 0-14.2-11.6-25.8-25.8-25.8z"/>
      <path d="m166.5,283.5c14.3,0 25.8-11.6 25.8-25.8 0-14.3-11.6-25.8-25.8-25.8-14.3,0-25.8,11.6-25.8,25.8 0,14.3 11.5,25.8 25.8,25.8z"/>
      <path d="m104.6,342.7c14.3,0 25.8-11.6 25.8-25.8 0-14.3-11.6-25.8-25.8-25.8-14.3,0-25.8,11.6-25.8,25.8-1.42109e-14,14.2 11.6,25.8 25.8,25.8z"/>
      <path d="m182.8,317.2c-14.3,0-25.8,11.6-25.8,25.8 0,14.3 11.6,25.8 25.8,25.8 14.3,0 25.8-11.6 25.8-25.8-2.84217e-14-14.2-11.5-25.8-25.8-25.8z"/>
    </g>
  </g>
</svg>
